<svg xmlns="http://www.w3.org/2000/svg" xmlns:xlink="http://www.w3.org/1999/xlink" width="14" height="13" viewBox="0 0 14 13"><defs><path id="ys3ya" d="M287 1287.72c0-.242.2-.438.449-.438h2.347a1.76 1.76 0 0 1 1.707-1.284 1.76 1.76 0 0 1 1.707 1.284h7.341c.248 0 .449.196.449.437s-.201.438-.449.438h-7.341a1.761 1.761 0 0 1-1.707 1.283 1.761 1.761 0 0 1-1.707-1.283h-2.347a.444.444 0 0 1-.45-.438zm3.635 0c0 .465.39.845.868.845s.867-.38.867-.846a.858.858 0 0 0-.867-.846.858.858 0 0 0-.868.846zm10.365 4.778c0 .241-.201.437-.449.437h-2.99a1.76 1.76 0 0 1-1.708 1.284 1.76 1.76 0 0 1-1.707-1.284h-6.697a.444.444 0 0 1-.45-.437c0-.241.202-.437.45-.437h6.697a1.76 1.76 0 0 1 1.707-1.283 1.76 1.76 0 0 1 1.707 1.283h2.991c.248 0 .449.196.449.437zm-4.28 0a.858.858 0 0 0-.867-.845.858.858 0 0 0-.867.845c0 .467.389.846.867.846.479 0 .868-.38.868-.846zm4.28 4.78c0 .241-.201.437-.449.437h-7.341a1.76 1.76 0 0 1-1.707 1.283 1.76 1.76 0 0 1-1.707-1.283h-2.347a.443.443 0 0 1-.45-.437c0-.242.202-.438.45-.438h2.347a1.76 1.76 0 0 1 1.707-1.284 1.76 1.76 0 0 1 1.707 1.284h7.341c.248 0 .449.196.449.438zm-8.63 0a.858.858 0 0 0-.867-.846.858.858 0 0 0-.868.846c0 .466.39.846.868.846s.867-.38.867-.846z"/></defs><g><g transform="translate(-287 -1286)"><use fill="#91989d" xlink:href="#ys3ya"/></g></g></svg>