<svg xmlns="http://www.w3.org/2000/svg" xmlns:xlink="http://www.w3.org/1999/xlink" width="17" height="14" viewBox="0 0 17 14"><defs><path id="nnswa" d="M302.76 1371.678v9.351a.8.8 0 0 1-.8.8h-5.58v1.81h2.171a.74.74 0 0 1 0 1.48h-8.102a.74.74 0 0 1 0-1.48h2.17v-1.81h-5.58a.8.8 0 0 1-.8-.8v-9.35a.8.8 0 0 1 .8-.8h14.92a.8.8 0 0 1 .8.8zm-1.2 8.952v-8.553h-14.12v8.553zm-13-5.238v-2.199c0-.11.09-.2.2-.2h11.48c.11 0 .2.09.2.2v2.199a.2.2 0 0 1-.2.2h-11.48a.2.2 0 0 1-.2-.2zm11.839 1.113v3.05a.159.159 0 0 1-.16.159h-2.588a.159.159 0 0 1-.158-.159v-3.05c0-.088.07-.159.158-.159h2.589c.087 0 .159.071.159.16zm-3.93 0v3.05a.159.159 0 0 1-.158.159h-7.551a.159.159 0 0 1-.159-.159v-3.05c0-.088.071-.159.159-.159h7.551c.088 0 .159.071.159.16zm-.533.24h-6.8v2.57h6.8z"/></defs><g><g transform="translate(-286 -1371)"><use fill="#91989d" xlink:href="#nnswa"/></g></g></svg>