<svg xmlns="http://www.w3.org/2000/svg" xmlns:xlink="http://www.w3.org/1999/xlink" width="15" height="16" viewBox="0 0 15 16"><defs><path id="re4qa" d="M648.61 1380.604c0 .494-.124.955-.37 1.385.019.134.028.272.028.413 0 .648-.195 1.218-.586 1.712.007.891-.27 1.594-.83 2.111-.56.516-1.299.774-2.217.774h-1.26a7.99 7.99 0 0 1-1.85-.217 22.86 22.86 0 0 1-2.115-.63c-.756-.256-1.205-.384-1.348-.384h-2.813c-.345 0-.64-.12-.884-.361a1.176 1.176 0 0 1-.366-.87v-6.155c0-.34.122-.63.366-.87s.539-.36.884-.36h2.676c.235-.154.68-.65 1.338-1.49.378-.482.726-.892 1.045-1.232.157-.16.272-.434.347-.822.075-.388.174-.793.298-1.216.124-.423.325-.77.605-1.039.254-.237.547-.356.88-.356.546 0 1.038.104 1.474.313.437.208.769.533.997.976.228.442.342 1.038.342 1.788 0 .596-.157 1.213-.47 1.847h1.72c.677 0 1.263.243 1.758.73.495.488.742 1.062.742 1.722 0 .571-.16 1.093-.479 1.568.059.211.088.433.088.663zm-12.11 3.318a.587.587 0 0 0-.186-.433.607.607 0 0 0-.44-.183.608.608 0 0 0-.44.183.587.587 0 0 0-.185.433c0 .166.062.31.186.432.123.122.27.183.44.183.168 0 .315-.061.439-.183a.588.588 0 0 0 .185-.432zm11.251-5.54c0-.326-.127-.613-.381-.86a1.212 1.212 0 0 0-.87-.37h-3.437c0-.372.156-.883.468-1.534.313-.65.47-1.165.47-1.543 0-.628-.105-1.094-.313-1.395-.208-.3-.625-.452-1.25-.452-.17.167-.294.44-.372.818-.078.379-.177.78-.297 1.207-.12.426-.315.777-.582 1.052a17.11 17.11 0 0 0-.976 1.165l-.308.394c-.081.102-.194.238-.337.408-.143.17-.273.311-.39.423-.118.113-.243.226-.377.342a1.635 1.635 0 0 1-.39.26.848.848 0 0 1-.347.086h-.313v6.154h.313c.085 0 .187.01.308.03a3.925 3.925 0 0 1 .693.167c.153.048.267.085.342.11.075.026.19.067.347.12.156.055.25.09.283.102 1.374.468 2.487.702 3.34.702h1.182c1.25 0 1.875-.535 1.875-1.606 0-.167-.016-.346-.048-.539.195-.102.35-.27.464-.504a1.6 1.6 0 0 0 .17-.707c0-.237-.058-.458-.175-.663.345-.32.517-.703.517-1.145 0-.16-.032-.338-.097-.533a1.288 1.288 0 0 0-.244-.457c.208-.006.382-.157.522-.452.14-.295.21-.555.21-.78z"/></defs><g><g transform="translate(-634 -1371)"><use fill="#91989d" xlink:href="#re4qa"/></g></g></svg>