<svg xmlns="http://www.w3.org/2000/svg" xmlns:xlink="http://www.w3.org/1999/xlink" width="12" height="17" viewBox="0 0 12 17"><defs><path id="f0j9a" d="M291.329 1342.75h7.5v.869c0 .209-.201.38-.447.38h-6.606c-.246 0-.447-.171-.447-.38zm-2.448-12.562c0-1.762 1.681-3.19 3.755-3.19s3.755 1.428 3.755 3.19c0 1.173-.75 2.199-1.86 2.753-.159-1.297-.335-2.745-.335-2.753a1.123 1.123 0 0 0-.54-.82 1.766 1.766 0 0 0-.926-.249c-.438 0-.854.14-1.144.388a1.106 1.106 0 0 0-.405.844l-.002 2.778c-1.352-.484-2.3-1.62-2.298-2.94zm11.114 9.592c0 .45-.143.89-.413 1.275l-.758 1.088h-7.5c-2.087-1.796-3.147-3.711-3.307-4.534-.112-.563.35-.941.864-.941.293 0 .604.122.836.404l.244.299c.668.821 1.354.83 1.658.836h.007l.029-.001h.004c.108-.014.186-.09.186-.18l.004-7.677c-.002-.43.445-.662.879-.662.382 0 .753.18.8.56 0 .007.576 4.744.579 4.76v.002h.002c.158-.12.422-.19.724-.19.112 0 .228.008.346.028.382.064 2.885.75 4.126 1.094.416.113.695.442.695.812z"/></defs><g><g transform="translate(-288 -1327)"><use fill="#91989d" xlink:href="#f0j9a"/></g></g></svg>