<svg xmlns="http://www.w3.org/2000/svg" xmlns:xlink="http://www.w3.org/1999/xlink" width="19" height="18" viewBox="0 0 19 18"><defs><path id="q4bsa" d="M638.337 1297.225c0-1.722 2.233-1.999 2.233-2.947 0-.417-.322-.666-.726-.666-.558 0-.861.565-.861.565l-.646-.43s.437-.956 1.58-.956c.842 0 1.555.51 1.555 1.413 0 1.534-2.14 1.797-2.16 2.698h2.234v.747h-3.169c-.02-.155-.04-.289-.04-.424zm5.754-4.354h1.03v2.826h.618v.72h-.619v1.232h-.854v-1.231h-2.234v-.532zm.175 1.346c0-.235.034-.497.034-.497h-.014s-.107.255-.235.437l-1.104 1.527v.013h1.319zm4.594 1.013l1.486.415c.164.046.26.216.214.38l-.159.57c-1.27 4.551-5.935 7.382-10.508 6.192-4.404-1.148-7.103-5.505-6.301-9.88l-1.075-.3a.31.31 0 0 1-.133-.518l3.084-3.02a.309.309 0 0 1 .515.144l1.073 4.181a.309.309 0 0 1-.382.374l-.987-.276c-.49 3.234 1.547 6.409 4.823 7.222 3.41.847 6.858-1.289 7.803-4.674l.166-.596a.31.31 0 0 1 .38-.214zm1.721-2.124l.062.472a.309.309 0 0 1-.267.346l-1.558.203a.309.309 0 0 1-.346-.267l-.061-.473a.309.309 0 0 1 .266-.345l1.558-.203a.31.31 0 0 1 .346.267zm-1.125-3.095l.234.415a.309.309 0 0 1-.117.42l-1.37.773a.309.309 0 0 1-.42-.118l-.234-.416a.308.308 0 0 1 .117-.42l1.37-.771a.309.309 0 0 1 .42.117zm-2.202-2.448l.372.298c.133.107.155.3.049.434l-.98 1.228a.309.309 0 0 1-.434.048l-.373-.297a.309.309 0 0 1-.049-.434l.981-1.228a.309.309 0 0 1 .434-.049zm-2.959-1.444l.457.136c.163.049.256.22.207.384l-.449 1.507a.309.309 0 0 1-.383.208l-.457-.137a.309.309 0 0 1-.208-.384l.45-1.506a.31.31 0 0 1 .383-.208zm-3.284-.23l.474-.045c.17-.016.32.109.337.278l.148 1.565a.31.31 0 0 1-.279.337l-.474.044a.309.309 0 0 1-.337-.279l-.147-1.564a.308.308 0 0 1 .278-.336zm-3.132 1.016l.423-.22a.309.309 0 0 1 .417.133l.723 1.396a.309.309 0 0 1-.132.416l-.423.219a.308.308 0 0 1-.416-.132l-.724-1.395a.309.309 0 0 1 .132-.417z"/></defs><g><g transform="translate(-632 -1285)"><use fill="#91989d" xlink:href="#q4bsa"/></g></g></svg>