<svg xmlns="http://www.w3.org/2000/svg" xmlns:xlink="http://www.w3.org/1999/xlink" width="14" height="16" viewBox="0 0 14 16"><defs><path id="gsopa" d="M300.818 1428.604a.98.98 0 0 1-.79.395h-12.057a.98.98 0 0 1-.79-.395.918.918 0 0 1-.13-.853l.35-1.002c.66-1.885 2.443-3.17 4.475-3.253.542.41 1.163.669 1.842.727.573.57 1.552.368 1.843-.375a4.01 4.01 0 0 0 .563-.352c2.032.084 3.815 1.368 4.474 3.253l.35 1.002a.92.92 0 0 1-.13.853zm-6.301-6.23c-.487 0-.898.307-1.052.73-1.594-.41-2.812-2.585-2.812-4.675 0-4.882 6.694-4.887 6.694 0 0 1.72-.825 3.498-2.005 4.304a1.129 1.129 0 0 0-.825-.358zm-6.684-3.24c0-.73.603-1.323 1.352-1.337a.52.52 0 0 1 .256-.328c-.009-.084-.02-.186-.006-.33.1-4.247 6.558-5.962 8.744-1.58.314.677.427 1.376.381 1.91a.52.52 0 0 1 .256.328c1.787.036 1.787 2.637 0 2.673a.528.528 0 0 1-.274.34v.37c0 1.8-1.63 1.95-3.483 2.428-.181.636-1.114.488-1.114-.144 0-.506.634-.75.99-.375 2.295-.591 3.059-.485 3.059-2.313a.52.52 0 0 1-.248-.434c0-2.35-.116-2.569.208-2.825-.778-4.406-7.166-4.44-7.907 0 .324.255.208.474.208 2.825 0 .586-.904.76-1.07.128-.749-.014-1.352-.606-1.352-1.337z"/></defs><g><g transform="translate(-287 -1413)"><use fill="#91989d" xlink:href="#gsopa"/></g></g></svg>