<svg xmlns="http://www.w3.org/2000/svg" xmlns:xlink="http://www.w3.org/1999/xlink" width="17" height="18" viewBox="0 0 17 18"><defs><path id="1pupa" d="M637.376 1415.511c-.328-.508-.201-1.109.786-1.02.843.077 1.581.027 1.766-.64.267-.961 1.48-1.37 2.002.103.29.82.975.128 1.265.026 1.24-.438 1.215.481.923.922-.145.217-.874 1.776-.769 2.943.058.628-1.485.958-2.24.985-.754.026-2.293-.182-2.533-.597-.276-.476-1.024-2.451-1.2-2.722zm6.461 3.511c3.13.865 6.173 3.932 6.173 7.133 0 3.804-2.249 4.837-8.501 4.837-6.253 0-8.5-1.006-8.5-4.837 0-2.978 2.497-5.916 5.457-6.916.117-.04.696.673 2.697.602 2.213-.078 2.509-.865 2.674-.819zm-.787 6.873c0-.798-.441-1.299-1.473-1.675-.742-.279-.993-.46-.993-.731 0-.304.268-.485.718-.485.55 0 .908.173 1.136.283a.1.1 0 0 0 .092.003.111.111 0 0 0 .061-.068l.236-.779a.104.104 0 0 0-.056-.125 2.919 2.919 0 0 0-1.142-.294v-.678a.107.107 0 0 0-.108-.106h-.714c-.06 0-.11.047-.11.106v.734c-.867.18-1.402.762-1.402 1.534 0 .932.8 1.341 1.58 1.617.636.221.884.436.884.756 0 .336-.323.554-.823.554a2.64 2.64 0 0 1-1.302-.359.118.118 0 0 0-.098-.008.112.112 0 0 0-.064.07l-.235.805a.105.105 0 0 0 .046.118c.324.2.848.344 1.36.376v.72c0 .057.05.105.11.105h.724c.06 0 .108-.048.108-.105v-.784c.892-.177 1.464-.792 1.465-1.584z"/></defs><g><g transform="translate(-633 -1413)"><use fill="#91989d" xlink:href="#1pupa"/></g></g></svg>