<svg xmlns="http://www.w3.org/2000/svg" xmlns:xlink="http://www.w3.org/1999/xlink" width="14" height="14" viewBox="0 0 14 14"><defs><path id="iqn4a" d="M645.852 1335.681l-2.625 2.625c.215.61.617 2.682-2.293 5.6a.258.258 0 0 1-.374.02l-.005-.004a.258.258 0 0 1-.049-.296c.01-.02.911-1.886.278-2.877l-.65.65a.265.265 0 0 1-.052.04c-.047.028-1.177.656-2.678-.846-1.502-1.5-.873-2.63-.846-2.677a.256.256 0 0 1 .04-.053l.65-.65c-.99-.633-2.857.27-2.876.278a.258.258 0 0 1-.296-.413c2.926-2.926 5.005-2.522 5.615-2.308l2.625-2.625c2.07-2.07 5.286-2.145 5.422-2.147a.258.258 0 0 1 .262.262c-.002.135-.077 3.35-2.148 5.421zm-1.185-2.35a1.448 1.448 0 1 0-2.047 2.049 1.448 1.448 0 0 0 2.047-2.049zm-6.664 8.673c.24-.066.465-.16.698-.246a2.217 2.217 0 0 1-.398.59c-.653.693-1.647 1.017-2.578 1.078-.204.013-.41.016-.614.002a.577.577 0 0 1-.507-.375c-.055-.152-.045-.345-.043-.503a4.99 4.99 0 0 1 .085-.856c.09-.479.252-.947.503-1.365.258-.43.623-.83 1.092-1.03-.02.058-.046.115-.07.172a5.865 5.865 0 0 0-.334 1.31c-.038.255-.059.514-.073.772a12.334 12.334 0 0 0-.018.612c0 .036.045.088.089.09a8.287 8.287 0 0 0 1.547-.116c.21-.037.416-.08.62-.135z"/></defs><g><g transform="translate(-634 -1330)"><use fill="#91989d" xlink:href="#iqn4a"/></g></g></svg>