<svg xmlns="http://www.w3.org/2000/svg" xmlns:xlink="http://www.w3.org/1999/xlink" width="50" height="39" viewBox="0 0 50 39"><defs><path id="pfqfa" d="M577.34 1590.557s4.493.563 6 .56c1.386 0 3.447.06 6.626-2.404 0 0 .466 2.77 3.146 4.713 0 0 .88 1.754 1.885 3.583h17.492a26.284 26.284 0 0 0-.298-4.425s3.797-7.464 1.606-12.288c0 0 6.549-1.846 9.375-9.007 0 0 2.976-2.692 1.341-4.388 0 0-1.782-3.307-6.843-5.54 0 0-3.35-1.999-3.869-2.692 0 0-1.414-2.309-6.55 1.614 0 0-.89 3.004.821 4.312 0 0 2.602.464 3.79-1.925 0 0 .222-.304-.217-.46 0 0 .96.076 1.486-.923 0 0 2.233.923 3.272 3.695 1.04 2.773.89 2.998 1.488 3.464 0 0-4.611 1.312-5.655 4.925 0 0-4.99.846-5.805 4.08 0 0-3.943.614-3.123-3.234 0 0 .67-.846 2.478-.742 0 0 .905.052.248-1.747-.058-.168.155-.368.275-.67.112-.276.004-.328-.496-.765-.163-.14.134-.453.26-.794.073-.205-.26-.953-.26-.953s.779-.627.744-.923c-.081-.702-1.883-1.062-2.184-1.691-.118-.251.305-.81.248-1.075-.203-1.003-1.203-3.047-2.543-3.845-1.835-1.09-6.844-1.437-9.027 3.13-.589 1.232-.117 4.218.396 5.491.48 1.206 2.64 4.455 2.64 4.455.103.31.792 4.829-2.975 5.952 0 0-3.424-.207-5.904 2.156 0 0-4.216-.36-5.356 2.204 0 0-.294-4.465 2.434-7.181 0 0 1.585.409 2.23 0 0 0 .496 1.666 1.587 1.026 0 0 .772.228.895-.517 0 0 1.138-.075.916-1.231 0 0 .57-1.64-.347-2.1 0 0 .044-1.437-1.194-1.387 0 0-2.254.172-3 .105-.972-.085-2.683.256-3.722 2.157l-3.619 5.232s-2.53 3.49-2.876 6.926c.004-.002-1.04 2.563 2.184 3.127z"/></defs><g><g transform="translate(-575 -1558)"><use fill="#007ee5" xlink:href="#pfqfa"/></g></g></svg>