<svg xmlns="http://www.w3.org/2000/svg" xmlns:xlink="http://www.w3.org/1999/xlink" width="45" height="42" viewBox="0 0 45 42"><defs><path id="hn46a" d="M325.095 1592.139h-14.399a12.382 12.382 0 0 0-4.708-5.483c.905-1.164 1.337-2.494 1.337-4.05.02-.023.037-.046.054-.069a4.453 4.453 0 0 0 1.965-1.064c.896.55 1.866.926 2.89 1.077 1.086 2.263 4.308 1.667 4.588-.835.294-.16.58-.335.858-.53l-2.09.576c-.395 1.48-2.426 1.141-2.426-.338 0-1.173 1.375-1.75 2.153-.874 3.142-.866 6.666-1.078 6.666-4.457v-.942c-.041-.028-.083-.051-.121-.084a1.25 1.25 0 0 1-.42-.928v-5.643c0-.39.183-.724.453-.953-1.587-9.912-14.362-10.38-16.99-1.027-.015-.021-.027-.04-.043-.06-.357-.476-.823-.947-1.337-1.409l.006-.035c1.819-8.682 12.687-10.656 17.543-4.21.574.698.982 1.46 1.312 2.173.684 1.572.93 3.221.832 4.455.279.165.476.436.558.768 1.629.034 2.942 1.414 2.942 3.119 0 1.704-1.313 3.083-2.942 3.118a1.213 1.213 0 0 1-.598.796v.862c0 2.107-1.365 3.953-3.32 4.492l-.828.228c6.033 1.328 7.25 6.813 7.868 8.707.418 1.283-.497 2.62-1.803 2.62zm-14.457-12.729c.141-.453.227-.93.227-1.428 0-2.194-1.494-4.066-3.481-4.552-.032-.763-.069-1.27-.233-2.076a12.357 12.357 0 0 0-.64-2.062c.477-4.601 3.323-8.14 6.771-8.14 3.784 0 6.851 4.25 6.851 9.497 0 3.96-1.749 7.35-4.235 8.776a2.352 2.352 0 0 0-1.49-.542c-.857 0-1.61.467-2.045 1.167a5.375 5.375 0 0 1-1.725-.64zm-.87 16.827c.424 1.3-.508 2.661-1.832 2.661-24.701 0-24.635.53-25.576-.84-.782-1.134-.127-2.226.438-3.958 1.21-3.71 4.33-6.322 7.98-6.846 1.2 1.05 2.6 1.74 4.108 1.962.752 1.57 2.717 1.888 3.893.675 3.95-1.09 4.331-1.096 5.364-1.665 4.088 2.128 4.896 5.776 5.625 8.01zm-20.496-16.75v-4.344c1.65-9.753 11.724-9.495 13.327.008 0 2.902.464 6.812-2.728 9.928l-2.122.586c-1.122-.345-2.172.148-2.735 1.051-2.826-.527-5.1-3.437-5.742-7.229zm0-4.342c0 2.488-.001 10.036-.001.006v-.006zm0-.002v0zm-6.774 2.84c0-1.706 1.314-3.086 2.948-3.12.08-.33.276-.6.553-.766-.74-7.683 8.789-13.571 15.69-8.594.791.582 1.493 1.241 2.036 1.965.574.698.982 1.46 1.314 2.173.312.723.517 1.416.649 2.037.153.753.242 1.67.18 2.418.28.165.477.437.557.769 1.632.035 2.944 1.414 2.944 3.117 0 1.705-1.312 3.085-2.944 3.119a1.207 1.207 0 0 1-.596.796v.863c0 4.265-3.893 4.65-7.587 5.669-.395 1.48-2.427 1.14-2.427-.339 0-1.173 1.376-1.75 2.155-.875 3.568-.984 6.664-1.187 6.664-4.455v-.943a1.232 1.232 0 0 1-.54-1.012c0-5.485-.253-6 .452-6.595-.324-2.014-1.319-3.89-2.543-5.14-1.1-1.225-2.421-1.86-3.763-2.314-3.486-.883-6.545.287-8.373 2.313-1.245 1.275-2.246 3.197-2.545 5.14.27.228.454.562.454.953v5.643c0 .686-.535 1.242-1.195 1.242-.558 0-1.005-.407-1.135-.946-1.634-.032-2.948-1.414-2.948-3.119z"/></defs><g><g transform="translate(-282 -1557)"><use fill="#007ee5" xlink:href="#hn46a"/></g></g></svg>