<svg xmlns="http://www.w3.org/2000/svg" xmlns:xlink="http://www.w3.org/1999/xlink" width="45" height="45" viewBox="0 0 45 45"><defs><path id="db91a" d="M1218.005 1586.388c0 7.505-5.997 13.616-13.374 13.616-3.962 0-7.509-1.78-9.96-4.575.104.155.187.32.294.468-1.69.26-3.498.412-5.398.412-9.297 0-16.573-3.383-16.573-7.694v-4.86c0-.69.198-1.387.59-2.078l.193-.34c-.505-.747-.783-1.544-.783-2.376v-4.858c0-.687.198-1.39.59-2.082l.233-.415c-.53-.757-.823-1.58-.823-2.428v-4.856c0-.653.18-1.326.538-1.985l.11-.212a2.737 2.737 0 0 1-.25-1.092c0-3.919 8.334-6.04 16.175-6.04 7.839 0 16.173 2.121 16.173 6.039 0 .384-.1.746-.25 1.09l.109.215c.36.659.54 1.332.54 1.985v4.856c0 .854-.295 1.67-.822 2.431l.229.412c.16.286.267.566.365.849 6.77.663 12.094 6.456 12.094 13.518zm-42.836-25.355c0 1.77 5.475 4.243 14.398 4.243 8.919 0 14.398-2.472 14.398-4.243 0-1.765-5.479-4.238-14.398-4.238-8.923 0-14.398 2.471-14.398 4.238zm-.4 8.147c0 2.787 6.076 5.892 14.798 5.892 8.721 0 14.799-3.105 14.799-5.892v-4.046c-2.665 2.295-8.827 3.48-14.8 3.48-5.973 0-12.14-1.185-14.796-3.48zm0 9.78c0 2.785 6.076 5.889 14.798 5.889.622 0 1.195-.05 1.79-.08.065-.522.158-1.034.277-1.537.431-1.84 1.256-3.52 2.34-4.983a35.403 35.403 0 0 1-4.407.296c-6.48 0-12.077-1.617-14.797-4.158zm18.972 15.281a13.65 13.65 0 0 1-.925-1.488 13.777 13.777 0 0 1-1.44-4.628c-.598.029-1.19.075-1.81.075-6.478 0-12.076-1.623-14.796-4.154v4.57c0 2.78 6.075 5.884 14.797 5.884a33.69 33.69 0 0 0 4.174-.259zm21.604-7.853c0-5.866-4.59-10.657-10.31-10.878-.138-.006-.27-.019-.404-.019-.467 0-.921.042-1.375.097-4.073.533-7.43 3.403-8.742 7.244a10.73 10.73 0 0 0-.418 1.615 11.41 11.41 0 0 0-.172 1.856c0 .032-.006.058-.006.086 0 2.162.626 4.174 1.695 5.87.35.553.751 1.073 1.193 1.554 1.95 2.134 4.733 3.484 7.825 3.484 5.906 0 10.714-4.894 10.714-10.91zm-4.667 2.318s-5.204 5.476-5.769 6.053c-.41.415-.803-.053-.803-.053l-5.921-5.856s-.719-.696.068-.696h2.684v-1.187-7.34s-.11-.413.508-.413h6.09c.443 0 .434.341.434.341v8.425h2.48c.953 0 .229.726.229.726z"/></defs><g><g transform="translate(-1173 -1555)"><use fill="#007ee5" xlink:href="#db91a"/></g></g></svg>