<svg xmlns="http://www.w3.org/2000/svg" xmlns:xlink="http://www.w3.org/1999/xlink" width="21" height="20" viewBox="0 0 21 20"><defs><path id="az2ra" d="M828 5754h4.973v-13.555H828zm2.548-20.004c-1.54 0-2.548 1.011-2.548 2.341 0 1.301.978 2.343 2.488 2.343h.03c1.57 0 2.547-1.042 2.547-2.343-.03-1.33-.977-2.341-2.517-2.341zm13.269 6.215c-2.391 0-3.46 1.318-4.057 2.24v.045l-.155.023v-2.074h-4.421V5754h4.421v-7.47c0-.405.186-.823.304-1.112.326-.811 1.066-1.65 2.31-1.65 1.629 0 2.36 1.217 2.36 3.04V5754h4.42v-7.687c0-4.163-2.22-6.102-5.182-6.102z"/></defs><g><g transform="translate(-828 -5734)"><use fill="#272829" xlink:href="#az2ra"/></g></g></svg>