<svg xmlns="http://www.w3.org/2000/svg" xmlns:xlink="http://www.w3.org/1999/xlink" width="17" height="14" viewBox="0 0 17 14"><defs><path id="u782a" d="M1349.537 6289.736a7.03 7.03 0 0 1-2.19.815 3.479 3.479 0 0 0-2.516-1.06c-1.904 0-3.447 1.504-3.447 3.357 0 .263.03.52.09.765a9.87 9.87 0 0 1-7.104-3.51 3.266 3.266 0 0 0-.467 1.689c0 1.166.61 2.194 1.533 2.795a3.5 3.5 0 0 1-1.56-.421v.041c0 1.628 1.188 2.985 2.763 3.295a3.567 3.567 0 0 1-1.557.056c.44 1.335 1.712 2.305 3.22 2.334a7.04 7.04 0 0 1-4.28 1.437c-.28 0-.553-.016-.823-.047a9.95 9.95 0 0 0 5.283 1.509c6.34 0 9.807-5.118 9.807-9.556l-.012-.435a6.833 6.833 0 0 0 1.723-1.736 7.03 7.03 0 0 1-1.979.529 3.399 3.399 0 0 0 1.516-1.857z"/></defs><g><g transform="translate(-1333 -6289)"><use fill="#3c4146" xlink:href="#u782a"/></g></g></svg>