<svg xmlns="http://www.w3.org/2000/svg" xmlns:xlink="http://www.w3.org/1999/xlink" width="16" height="15" viewBox="0 0 16 15"><defs><path id="260fa" d="M1333.849 6260.393h3.482v-9.49h-3.482zm1.784-14.005c-1.079 0-1.784.708-1.784 1.64 0 .91.685 1.64 1.742 1.64h.02c1.1 0 1.784-.73 1.784-1.64-.02-.932-.684-1.64-1.762-1.64zm9.288 4.352c-1.673 0-2.42.922-2.84 1.568v.031l-.108.016v-1.452h-3.095v9.49h3.095v-5.23c0-.283.13-.576.213-.779.228-.568.746-1.154 1.616-1.154 1.141 0 1.653.851 1.653 2.127v5.036h3.095v-5.381c0-2.915-1.555-4.272-3.629-4.272z"/></defs><g><g transform="translate(-1333 -6246)"><use fill="#3c4146" xlink:href="#260fa"/></g></g></svg>