<svg xmlns="http://www.w3.org/2000/svg" xmlns:xlink="http://www.w3.org/1999/xlink" width="24" height="19" viewBox="0 0 24 19"><defs><path id="wlkla" d="M905.338 5737.35a10.06 10.06 0 0 1-3.129 1.164 4.968 4.968 0 0 0-3.593-1.517c-2.72 0-4.924 2.15-4.924 4.798 0 .375.044.742.128 1.093-4.092-.2-7.72-2.11-10.148-5.013a4.675 4.675 0 0 0-.666 2.411c0 1.665.87 3.134 2.19 3.993a5.022 5.022 0 0 1-2.23-.602v.06c0 2.324 1.697 4.262 3.948 4.705a5.044 5.044 0 0 1-2.224.081c.627 1.906 2.445 3.293 4.599 3.332a10.045 10.045 0 0 1-6.115 2.053c-.397 0-.79-.023-1.175-.065a14.208 14.208 0 0 0 7.548 2.155c9.056 0 14.008-7.31 14.008-13.65l-.016-.622a9.774 9.774 0 0 0 2.46-2.48c-.883.38-1.83.64-2.826.755a4.848 4.848 0 0 0 2.165-2.652z"/></defs><g><g transform="translate(-882 -5737)"><use fill="#272829" xlink:href="#wlkla"/></g></g></svg>