<svg xmlns="http://www.w3.org/2000/svg" xmlns:xlink="http://www.w3.org/1999/xlink" width="35" height="39" viewBox="0 0 35 39"><defs><path id="47c6a" d="M427.865 1949.965a.745.745 0 0 1-1.048 0 .73.73 0 0 1 0-1.04 2.833 2.833 0 0 1 2.006-.824c.758 0 1.471.293 2.007.825a.73.73 0 0 1 0 1.04.744.744 0 0 1-1.048 0 1.353 1.353 0 0 0-.959-.394c-.362 0-.702.14-.958.393zm18.319-1.04a.73.73 0 0 1 0 1.04.744.744 0 0 1-1.05 0 1.365 1.365 0 0 0-1.916 0 .745.745 0 0 1-1.048 0 .73.73 0 0 1 0-1.04 2.858 2.858 0 0 1 4.014 0zm-.963 7.254a.73.73 0 0 1 0 1.04 12.35 12.35 0 0 1-8.721 3.576 12.349 12.349 0 0 1-8.721-3.577.73.73 0 0 1 0-1.04.747.747 0 0 1 1.048 0c4.231 4.197 11.115 4.197 15.346 0a.747.747 0 0 1 1.048 0zm5.194-1.773a13.871 13.871 0 0 1-3.928 7.486 14.091 14.091 0 0 1-9.986 4.102h-.001c-3.777 0-7.328-1.48-9.999-4.167a14.082 14.082 0 0 1-3.893-7.418c-2.027-.25-3.602-1.968-3.602-4.045 0-1.998 1.456-3.663 3.37-4.01v-7.321c-.17.1-.333.22-.482.362a1.276 1.276 0 0 1-1.584.162 1.253 1.253 0 0 1-.531-1.488l.36-1.06c.197-.575.486-1.11.85-1.585.41-3.818 3.072-6.504 7.714-7.775 3.546-.97 7.311-.847 10.888.358l4.655 1.567a4.81 4.81 0 0 1 4.236.522 4.728 4.728 0 0 1 2.142 3.957v12.3c1.914.348 3.37 2.014 3.37 4.011 0 2.069-1.563 3.782-3.579 4.042zm-5.404-23.528l.062 8.084c0 2.38 1.767 4.358 4.068 4.713v-9.622a3.222 3.222 0 0 0-1.478-2.732 3.271 3.271 0 0 0-2.652-.443zm-19.13 6.984a13.125 13.125 0 0 0 9.608 1.882 13.047 13.047 0 0 0 8.097-5.06l-.058-3.8-4.413-1.485c-3.295-1.109-6.759-1.224-10.017-.333-3.282.899-5.368 2.503-6.23 4.782a5.687 5.687 0 0 1 4.99-.115 4.202 4.202 0 0 0 4.864-1.005l.184-.207a.746.746 0 0 1 1.046-.063.73.73 0 0 1 .064 1.038l-.183.206c-1.641 1.84-4.355 2.4-6.6 1.363a4.19 4.19 0 0 0-3.389-.052 4.136 4.136 0 0 0-2.3 2.468l-.144.423a4.046 4.046 0 0 1 4.481-.042zm-3.468 15.013c-.024-.34-.037-.682-.037-1.027v-3.985a2.615 2.615 0 0 0-1.887 2.501c0 1.195.816 2.205 1.924 2.511zm26.728-.887v-6.83c-3.122-.366-5.551-3.004-5.551-6.196v-1.995a14.54 14.54 0 0 1-7.824 4.222 14.615 14.615 0 0 1-10.695-2.095 2.575 2.575 0 0 0-1.212-.408v13.162c0 3.37 1.313 6.548 3.698 8.946a12.527 12.527 0 0 0 8.943 3.73h.001c3.376-.001 6.55-1.305 8.937-3.672a12.403 12.403 0 0 0 3.703-8.864zm3.37-1.624a2.615 2.615 0 0 0-1.887-2.501v4.125c0 .296-.01.591-.029.885a2.614 2.614 0 0 0 1.916-2.509z"/></defs><g><g transform="translate(-419 -1927)"><use fill="#a9d8ff" xlink:href="#47c6a"/></g></g></svg>