<svg xmlns="http://www.w3.org/2000/svg" xmlns:xlink="http://www.w3.org/1999/xlink" width="44" height="38" viewBox="0 0 44 38"><defs><path id="j6u9a" d="M1216.022 1963.626a1.71 1.71 0 0 1-1.713 1.71h-40.447a1.71 1.71 0 0 1-1.713-1.71 1.71 1.71 0 0 1 1.713-1.708h16.331l-15.821-15.783a1.828 1.828 0 0 1 0-2.59l14.266-14.232a1.84 1.84 0 0 1 2.597 0l22.565 22.51a1.828 1.828 0 0 1 0 2.59l-7.523 7.505h8.032a1.71 1.71 0 0 1 1.713 1.708zm-23.066-27.415l2.445 11.457 11.484 2.438zm2.43 25.707h5.698l7.61-7.59-15.27-3.243a1.88 1.88 0 0 1-1.448-1.445l-3.251-15.232-10.458 10.432z"/></defs><g><g transform="translate(-1172 -1928)"><use fill="#a9d8ff" xlink:href="#j6u9a"/></g></g></svg>