<svg xmlns="http://www.w3.org/2000/svg" xmlns:xlink="http://www.w3.org/1999/xlink" width="46" height="38" viewBox="0 0 46 38"><defs><path id="38ysa" d="M973.712 1930.823v9.28c0 1.153-.945 2.092-2.107 2.092h-10.578l-4.87 4.176a.659.659 0 0 1-.702.101.653.653 0 0 1-.383-.593v-3.684h-1.592a2.102 2.102 0 0 1-2.107-2.091v-9.28c0-1.154.945-2.092 2.107-2.092h18.125c1.162 0 2.107.938 2.107 2.091zm-14.944 3.991a.257.257 0 0 0-.207-.172l-1.337-.192-.599-1.203a.256.256 0 1 0-.46 0l-.597 1.203-1.338.192a.254.254 0 0 0-.142.433l.968.937-.228 1.322a.252.252 0 0 0 .101.248.258.258 0 0 0 .27.02l1.197-.625 1.196.625a.26.26 0 0 0 .27-.02.252.252 0 0 0 .102-.248l-.229-1.322.968-.936a.253.253 0 0 0 .065-.262zm6.147 0a.256.256 0 0 0-.207-.172l-1.337-.192-.599-1.203a.256.256 0 0 0-.23-.142.256.256 0 0 0-.229.142l-.598 1.203-1.338.192a.254.254 0 0 0-.142.433l.968.937-.229 1.322a.252.252 0 0 0 .103.248.258.258 0 0 0 .27.02l1.196-.625 1.196.625a.26.26 0 0 0 .27-.02.253.253 0 0 0 .102-.248l-.229-1.322.968-.936a.253.253 0 0 0 .065-.262zm6.147 0a.257.257 0 0 0-.207-.172l-1.337-.192-.599-1.203a.256.256 0 0 0-.459 0l-.598 1.203-1.338.192a.254.254 0 0 0-.142.433l.968.937-.229 1.322a.252.252 0 0 0 .102.248.258.258 0 0 0 .27.02l1.197-.625 1.196.625a.26.26 0 0 0 .27-.02.253.253 0 0 0 .102-.248l-.229-1.322.968-.936a.253.253 0 0 0 .065-.262zm-21.36 6.996c0 9.876-6.838 9.601-6.838 9.601-4.2.064-6.776-3.585-6.841-9.6-.045-4.393 2.409-6.672 6.841-6.672 4.528 0 6.838 2.279 6.838 6.671zm7.648 23.479h-28.975c.189-.71.187-8.441 2.387-9.312l6.833-2.704 1.6-1.337a1.07 1.07 0 0 1 1.438.058l2.23 2.196 2.225-2.195a1.07 1.07 0 0 1 1.439-.059l1.6 1.337 6.832 2.704c2.201.869 2.202 8.603 2.39 9.312z"/></defs><g><g transform="translate(-928 -1928)"><use fill="#a9d8ff" xlink:href="#38ysa"/></g></g></svg>