<svg xmlns="http://www.w3.org/2000/svg" xmlns:xlink="http://www.w3.org/1999/xlink" width="17" height="18" viewBox="0 0 17 18"><defs><path id="vfk9a" d="M264.5 411c4.694 0 8.5 3.862 8.5 8.627 0 4.764-3.806 8.627-8.5 8.627s-8.5-3.863-8.5-8.627c0-4.765 3.806-8.627 8.5-8.627zm-4.413 9.974h5.632l-1.824 1.848a1.356 1.356 0 0 0 0 1.898 1.308 1.308 0 0 0 1.87 0l4.083-4.144a1.357 1.357 0 0 0 0-1.899l-4.082-4.143a1.31 1.31 0 0 0-1.87 0 1.354 1.354 0 0 0 0 1.897l1.823 1.848h-5.632c-.73 0-1.322.606-1.322 1.348 0 .741.592 1.347 1.322 1.347z"/></defs><g><g transform="translate(-256 -411)"><use fill="#88c9ff" xlink:href="#vfk9a"/></g></g></svg>